<?xml version="1.0" encoding="UTF-8" standalone="no" ?>
<!DOCTYPE svg PUBLIC "-//W3C//DTD SVG 1.1//EN" "http://www.w3.org/Graphics/SVG/1.1/DTD/svg11.dtd">
<svg xmlns="http://www.w3.org/2000/svg" xmlns:xlink="http://www.w3.org/1999/xlink" version="1.1" width="1080" height="1080" viewBox="0 0 1080 1080" xml:space="preserve">
<desc>Created with Fabric.js 5.2.4</desc>
<defs>
</defs>
<g transform="matrix(1 0 0 1 540 540)" id="bdee173c-fdbc-4008-be7b-14fe5526d0a9"  >
<rect style="stroke: none; stroke-width: 1; stroke-dasharray: none; stroke-linecap: butt; stroke-dashoffset: 0; stroke-linejoin: miter; stroke-miterlimit: 4; fill: rgb(255,255,255); fill-rule: nonzero; opacity: 1; visibility: hidden;" vector-effect="non-scaling-stroke"  x="-540" y="-540" rx="0" ry="0" width="1080" height="1080" />
</g>
<g transform="matrix(1 0 0 1 540 540)" id="9d21b5aa-0158-407e-a506-fcb85b578ff6"  >
</g>
<g transform="matrix(1 0 0 1 540 540)" id="529dd2cf-8c32-45c7-a637-09fa51369409"  >
<path style="stroke: rgb(0,0,0); stroke-width: 0; stroke-dasharray: none; stroke-linecap: butt; stroke-dashoffset: 0; stroke-linejoin: miter; stroke-miterlimit: 4; fill: rgb(58,57,237); fill-rule: nonzero; opacity: 1;" vector-effect="non-scaling-stroke"  transform=" translate(-480, 480)" d="M 240 -400 L 560 -400 L 560 -480 L 240 -480 L 240 -400 Z M 240 -520 L 720 -520 L 720 -600 L 240 -600 L 240 -520 Z M 240 -640 L 720 -640 L 720 -720 L 240 -720 L 240 -640 Z M 80 -80 L 80 -800 Q 80 -833 103.5 -856.5 Q 127 -880 160 -880 L 800 -880 Q 833 -880 856.5 -856.5 Q 880 -833 880 -800 L 880 -320 Q 880 -287 856.5 -263.5 Q 833 -240 800 -240 L 240 -240 L 80 -80 Z M 206 -320 L 800 -320 L 800 -800 L 160 -800 L 160 -275 L 206 -320 Z M 160 -320 L 160 -800 L 160 -320 Z" stroke-linecap="round" />
</g>
</svg>